<svg width="20" height="20" viewBox="0 0 20 20" fill="none" xmlns="http://www.w3.org/2000/svg">
<g clip-path="url(#clip0_7324_47277)">
<path fill-rule="evenodd" clip-rule="evenodd" d="M20 7.4617C20 8.77728 19.4869 10.0158 18.5568 10.9459C16.967 12.5357 14.3813 12.5357 12.7915 10.9459L7.10329 5.25769C6.51691 4.67131 5.73464 4.34778 4.90182 4.34778C4.069 4.34778 3.2425 4.689 2.64853 5.30951C1.83087 6.16634 1.61477 7.40356 1.98632 8.48661C1.35823 8.67112 0.829973 9.09195 0.506449 9.64548C-0.376921 7.82313 -0.10774 5.56858 1.33801 4.05586C2.27698 3.07391 3.54201 2.53302 4.90182 2.53302C6.26163 2.53302 7.45715 3.04484 8.38728 3.97497L14.0755 9.66317C14.5026 10.0903 15.0701 10.3254 15.6741 10.3254C16.2782 10.3254 16.8456 10.0903 17.2728 9.66317C17.8617 9.07552 18.1852 8.29325 18.1852 7.4617C18.1852 6.63014 17.8617 5.84534 17.2741 5.25896C16.0596 4.04448 14.0843 4.04448 12.8686 5.25896L12.2455 5.88326L10.9603 4.6018L11.5859 3.97624C13.5093 2.05405 16.6359 2.05405 18.5568 3.97497C19.4869 4.9051 20 6.14233 20 7.4617ZM13.4107 13.2308L14.6934 14.5148L12.9937 16.2145C12.1596 17.0486 11.0538 17.4669 9.94675 17.4669C8.83969 17.4669 7.79329 17.0701 6.96553 16.2752L3.79601 13.232C4.35839 12.9654 4.80702 12.4991 5.05219 11.9241L8.22171 14.9672C9.19354 15.8999 10.7581 15.8834 11.711 14.9318L13.4107 13.2308ZM4.12965 11.0381C4.13218 11.0028 4.13345 10.9661 4.13345 10.9295C4.13345 10.1421 3.49398 9.5014 2.70666 9.5014C2.65863 9.5014 2.61061 9.50393 2.56385 9.50898C1.88395 9.57596 1.34432 10.1219 1.28492 10.8031C1.27987 10.8448 1.2786 10.8865 1.2786 10.9295C1.2786 11.7168 1.91933 12.3575 2.70666 12.3575C2.76353 12.3575 2.81913 12.3537 2.87347 12.3474C3.54706 12.269 4.07784 11.7193 4.12965 11.0381Z" fill="#3BC9AE"/>
</g>
<defs>
<clipPath id="clip0_7324_47277">
<rect width="20" height="20" fill="white"/>
</clipPath>
</defs>
</svg>
