<svg width="2066" height="315" viewBox="0 0 2066 315" fill="none" xmlns="http://www.w3.org/2000/svg">
<g clip-path="url(#clip0_11155_12727)">
<path d="M162.163 255.249C181.331 273.645 212.19 273.32 230.984 254.551L264.51 221L289.811 246.325L256.284 279.851C239.833 296.302 218.023 304.553 196.188 304.553C174.352 304.553 153.713 296.726 137.387 281.048L74.8721 221.025C85.9641 215.766 94.8128 206.568 99.6484 195.227L162.163 255.249ZM53.3916 147.442C68.9203 147.443 81.533 160.08 81.5332 175.608C81.5332 176.331 81.5079 177.055 81.458 177.753C80.4358 191.188 69.9671 202.031 56.6816 203.576C55.6099 203.701 54.5131 203.775 53.3916 203.775C37.8626 203.775 25.2246 191.137 25.2246 175.608C25.2246 174.761 25.2499 173.939 25.3496 173.116C26.5211 159.681 37.1641 148.913 50.5742 147.592C51.4965 147.492 52.4444 147.442 53.3916 147.442ZM96.6826 10C123.503 10 147.083 20.095 165.429 38.4404L277.622 150.634C286.047 159.059 297.239 163.695 309.153 163.695C321.068 163.695 332.26 159.059 340.685 150.634C352.3 139.043 358.682 123.613 358.682 107.212C358.682 90.8106 352.301 75.3313 340.71 63.7656C316.756 39.8117 277.796 39.8118 253.817 63.7656L241.528 76.0791L216.179 50.8037L228.517 38.4658C266.454 0.553166 328.122 0.552889 366.01 38.4404C384.355 56.7861 394.476 81.1891 394.476 107.212C394.476 133.16 384.355 157.588 366.01 175.934C334.653 207.291 283.654 207.291 252.297 175.934L140.104 63.7412C128.538 52.1755 113.109 45.794 96.6826 45.7939C80.2563 45.7939 63.9546 52.5241 52.2393 64.7627C36.112 81.6627 31.8494 106.066 39.1777 127.428C26.7896 131.067 16.3704 139.367 9.98926 150.284C-7.43397 114.341 -2.12486 69.8727 26.3906 40.0361C44.9108 20.6685 69.862 10 96.6826 10Z" fill="#3BC9AE"/>
<path d="M1988.07 198.904C1987.36 253.33 1943.47 297.189 1888.43 297.189C1833.39 297.189 1788.76 252.637 1788.76 197.544C1788.76 142.451 1833.39 97.8228 1888.43 97.8228C1910.9 97.8228 1931.62 105.287 1948.27 117.803V36.8306H1988.07V198.904ZM1071.5 99.0806C1103.66 99.0806 1125.82 114.316 1137.57 129.884V102.209H1177.35V292.83H1137.57V264.461C1125.46 280.723 1102.63 295.933 1070.8 295.933C1021.33 295.933 981.548 255.459 981.548 196.647C981.548 137.835 1021.33 99.0807 1071.5 99.0806ZM1665.54 99.105C1719.87 99.1052 1758.26 136.808 1758.26 192.85C1758.26 199.39 1757.93 205.623 1756.88 212.164H1596.24V228.296H1614.68C1622.51 250.072 1641.33 262.743 1665.54 262.743C1689.76 262.743 1703.27 250.969 1710.53 236.093H1753.08C1742.36 269.308 1712.25 295.931 1665.54 295.931C1610.89 295.931 1570.41 257.176 1570.41 197.338C1570.41 137.5 1611.22 99.105 1665.54 99.105ZM966.546 131.96H934.383C917.788 131.96 912.248 137.86 912.248 152.043V292.982H872.467V152.043C872.467 113.289 893.55 99.105 927.458 99.105H966.546V131.96ZM606.565 99.0806C651.193 99.0807 684.767 127.114 684.767 180.386V292.83H645.653V186.259C645.653 151.326 626.981 133.346 597.922 133.346C568.862 133.346 549.83 151.326 549.83 186.259V292.83H510.409V102.209H549.83V123.985C562.628 108.442 583.738 99.0806 606.565 99.0806ZM1460 99.0806C1504.61 99.0806 1538.51 127.114 1538.51 180.386V292.83H1499.43V186.259C1499.43 151.326 1480.75 133.346 1451.69 133.346C1422.63 133.346 1403.6 151.326 1403.6 186.259V292.83H1364.51V186.259C1364.51 151.326 1345.79 133.346 1316.76 133.346C1287.72 133.346 1268.69 151.326 1268.69 186.259V292.83H1229.24V102.209H1268.69V123.985C1281.49 108.442 1302.24 99.0806 1325.07 99.0806C1355.18 99.0807 1380.42 111.879 1393.57 136.809C1405.32 113.623 1432.33 99.0807 1460 99.0806ZM780.929 102.208H827.276V134.398H780.929V134.475H763.719V150.633H780.929V239.89C780.929 254.074 786.47 259.973 803.064 259.973H827.276V292.829H796.138C762.257 292.829 741.148 278.645 741.148 239.89V134.398H718.654V102.208H741.148V36.8306H780.929V102.208ZM450.83 292.826H411.382V102.667C417.589 104.309 424.129 105.181 430.849 105.181C437.749 105.181 444.469 104.257 450.83 102.513V292.826ZM1079.81 133.346C1050.39 133.346 1022.02 155.481 1022.02 196.647C1022.02 237.813 1050.39 261.692 1079.81 261.692C1109.56 261.692 1137.57 238.172 1137.57 197.339C1137.57 156.507 1109.23 133.346 1079.81 133.346ZM1888.43 134.475C1853.75 134.475 1825.59 162.637 1825.59 197.339C1825.59 232.042 1853.75 260.178 1888.43 260.178C1923.13 260.178 1951.32 232.067 1951.32 197.339C1951.32 162.611 1923.11 134.475 1888.43 134.475ZM1663.82 132.32C1637.18 132.32 1615.73 150.299 1611.58 180.411H1717.1C1716.4 150.992 1693.22 132.32 1663.82 132.32ZM2041.2 37.8052C2055.25 37.8052 2065.28 48.2958 2065.28 62.3511C2065.28 76.4065 2055.38 86.7944 2041.2 86.7944C2027.01 86.7944 2017.01 76.4064 2017.01 62.3511C2017.01 48.2958 2027.01 37.8053 2041.2 37.8052ZM2041.2 41.9604C2029.22 41.9605 2021.4 50.4759 2021.4 62.3511C2021.4 74.2263 2029.22 82.767 2041.2 82.7671C2053.05 82.7671 2060.87 74.2007 2060.87 62.3511C2060.87 50.5015 2053.17 41.9604 2041.2 41.9604ZM2043.04 49.0396C2048.4 49.0396 2051.84 52.0919 2051.84 56.9907C2051.84 61.1457 2049.38 63.9412 2045.35 64.6851L2052.69 75.2017L2046.45 75.3042L2039.74 64.9419H2036.91V75.3042H2031.66V49.0396H2043.04ZM404.972 48.9116C401.407 30.3165 417.566 14.2602 436.084 17.8765C446.394 19.8771 454.654 28.2386 456.629 38.5493C460.168 57.0675 444.291 73.0466 425.696 69.5327L425.722 69.5581C415.361 67.6088 406.947 59.2991 404.972 48.9116ZM2036.91 60.5298H2042.66C2044.86 60.5298 2046.58 59.4527 2046.58 57.1187C2046.58 54.7849 2044.86 53.8101 2042.66 53.8101H2036.91V60.5298Z" fill="#3C3C3C"/>
</g>
<defs>
<clipPath id="clip0_11155_12727">
<rect width="2065.28" height="314.553" fill="white"/>
</clipPath>
</defs>
</svg>
