<svg width="395" height="295" viewBox="0 0 395 295" fill="none" xmlns="http://www.w3.org/2000/svg">
<path d="M162.163 245.249C181.331 263.645 212.19 263.32 230.984 244.551L264.51 211L289.81 236.325L256.284 269.851C239.833 286.302 218.023 294.553 196.187 294.553C174.352 294.553 153.713 286.726 137.386 271.048L74.8718 211.025C85.9638 205.766 94.8126 196.568 99.6482 185.227L162.163 245.249ZM53.3914 137.442C68.9201 137.443 81.5327 150.08 81.533 165.608C81.533 166.331 81.5076 167.055 81.4578 167.753C80.4356 181.188 69.9668 192.031 56.6814 193.576C55.6097 193.701 54.5129 193.775 53.3914 193.775C37.8623 193.775 25.2244 181.137 25.2244 165.608C25.2244 164.761 25.2497 163.939 25.3494 163.116C26.5209 149.681 37.1638 138.913 50.574 137.592C51.4962 137.492 52.4442 137.442 53.3914 137.442ZM96.6824 0C123.503 4.99724e-05 147.083 10.095 165.428 28.4404L277.622 140.634C286.047 149.059 297.238 153.695 309.153 153.695C321.068 153.695 332.259 149.059 340.684 140.634C352.3 129.043 358.681 113.613 358.681 97.2119C358.681 80.8106 352.3 65.3313 340.71 53.7656C316.756 29.8117 277.796 29.8118 253.817 53.7656L241.528 66.0791L216.178 40.8037L228.516 28.4658C266.454 -9.44683 328.122 -9.44711 366.01 28.4404C384.355 46.7861 394.475 71.1891 394.475 97.2119C394.475 123.16 384.355 147.588 366.01 165.934C334.652 197.291 283.654 197.291 252.297 165.934L140.103 53.7412C128.538 42.1755 113.109 35.794 96.6824 35.7939C80.2561 35.7939 63.9543 42.5241 52.239 54.7627C36.1118 71.6627 31.8492 96.066 39.1775 117.428C26.7894 121.067 16.3701 129.367 9.98901 140.284C-7.43422 104.341 -2.12511 59.8727 26.3904 30.0361C44.9105 10.6685 69.8618 0 96.6824 0Z" fill="#3BC9AE"/>
</svg>
